<?xml version="1.0" standalone="no"?>
<!DOCTYPE svg PUBLIC "-//W3C//DTD SVG 20010904//EN"
 "http://www.w3.org/TR/2001/REC-SVG-20010904/DTD/svg10.dtd">
<svg version="1.0" xmlns="http://www.w3.org/2000/svg"
 width="1200.000000pt" height="1200.000000pt" viewBox="0 0 1200.000000 1200.000000"
 preserveAspectRatio="xMidYMid meet">
<metadata>
Created by potrace 1.14, written by Peter Selinger 2001-2017
</metadata>
<g transform="translate(0.000000,1200.000000) scale(0.100000,-0.100000)"
fill="#000000" stroke="none">
<path d="M5897 11649 c-38 -5 -101 -20 -140 -33 -40 -14 -350 -157 -689 -320
-340 -162 -659 -315 -710 -339 -51 -25 -246 -118 -433 -207 -187 -89 -389
-186 -450 -215 -1395 -665 -1928 -923 -1974 -955 -124 -85 -237 -228 -285
-362 -31 -87 -1033 -4438 -1047 -4547 -18 -145 22 -329 101 -461 32 -53 831
-1052 2694 -3365 107 -132 215 -262 242 -288 96 -95 228 -168 372 -205 63 -16
216 -17 2422 -15 2340 2 2355 2 2435 23 148 38 277 112 375 216 99 105 2881
3574 2922 3643 21 36 50 102 65 146 24 71 27 96 27 225 l1 145 -498 2155
c-274 1185 -507 2191 -518 2234 -50 197 -169 366 -330 469 -30 19 -497 246
-1039 504 -542 259 -1471 702 -2065 986 -594 283 -1109 525 -1145 536 -36 11
-103 25 -150 31 -93 11 -87 11 -183 -1z"/>
</g>
</svg>
